<?xml version="1.0" standalone="no"?>
<!DOCTYPE svg PUBLIC "-//W3C//DTD SVG 20010904//EN"
 "http://www.w3.org/TR/2001/REC-SVG-20010904/DTD/svg10.dtd">
<svg version="1.0" xmlns="http://www.w3.org/2000/svg"
 width="559.000000pt" height="335.000000pt" viewBox="0 0 559.000000 335.000000"
 preserveAspectRatio="xMidYMid meet">
<metadata>
Created by potrace 1.13, written by Peter Selinger 2001-2015
</metadata>
<g transform="translate(0.000000,335.000000) scale(0.100000,-0.100000)"
fill="#000000" stroke="none">
<path d="M1470 3009 c-474 -52 -887 -343 -1095 -771 -25 -51 -53 -116 -62
-145 l-17 -53 -62 0 -62 0 -21 -89 c-49 -206 -45 -457 10 -663 l10 -37 60 -3
61 -3 33 -86 c179 -463 572 -789 1055 -875 125 -22 345 -22 465 0 410 76 760
321 960 671 44 77 99 201 116 258 l8 27 -123 0 -123 0 -47 -97 c-60 -124 -120
-208 -221 -308 -390 -389 -990 -444 -1449 -132 -85 57 -200 170 -269 262 -59
78 -155 260 -144 271 3 3 24 -33 47 -80 161 -329 467 -560 823 -622 134 -23
340 -15 470 19 260 69 506 243 651 461 47 69 116 202 116 221 0 3 -57 5 -128
5 l-127 0 -52 -78 c-356 -538 -1130 -537 -1480 1 -25 37 -43 72 -41 77 2 6 27
-27 57 -71 99 -149 233 -260 397 -329 256 -106 560 -79 796 73 84 53 192 160
249 246 l51 76 -131 3 -132 3 -59 -58 c-71 -71 -162 -126 -255 -156 -94 -30
-292 -31 -375 -3 -102 34 -191 88 -259 156 l-66 65 145 5 c103 4 136 7 113 13
-53 14 -150 83 -187 134 -59 79 -80 145 -80 248 0 80 3 97 31 157 41 88 113
160 201 201 l67 32 349 5 349 5 -45 42 c-124 113 -246 164 -409 171 -179 7
-323 -46 -450 -165 -38 -36 -73 -63 -77 -58 -15 15 130 135 212 175 119 58
189 73 316 67 172 -8 301 -63 423 -180 l60 -58 130 3 129 3 -51 77 c-28 42
-86 109 -129 150 -316 296 -796 312 -1133 39 -81 -65 -125 -114 -184 -206 -22
-33 -41 -62 -42 -64 -2 -2 -6 -1 -9 2 -13 13 83 145 166 227 170 168 371 250
614 250 120 0 213 -17 324 -60 160 -62 324 -196 417 -344 l48 -76 129 0 129 0
-7 23 c-30 99 -146 271 -253 377 -392 389 -1013 433 -1456 103 -150 -112 -276
-267 -353 -433 -19 -41 -37 -69 -39 -63 -6 18 68 161 128 249 313 452 924 612
1425 374 229 -110 454 -341 550 -566 l27 -64 124 0 c67 0 123 2 123 4 0 14
-57 151 -94 224 -125 248 -358 479 -614 606 -98 49 -257 102 -362 120 -115 20
-287 27 -390 15z m-490 -1015 c-18 -25 -44 -73 -60 -107 -86 -191 -62 -424 60
-602 20 -29 26 -45 18 -45 -15 0 -66 79 -97 151 -69 155 -68 355 1 504 34 74
81 145 96 145 8 0 1 -18 -18 -46z"/>
<path d="M3385 1881 c-122 -30 -199 -122 -199 -241 0 -144 109 -243 269 -244
161 -2 275 100 275 244 0 166 -169 284 -345 241z m140 -115 c45 -19 75 -69 75
-124 0 -62 -23 -100 -77 -124 -84 -37 -177 -1 -203 78 -40 119 83 221 205 170z"/>
<path d="M4570 1875 c-80 -25 -120 -78 -120 -159 0 -87 89 -162 179 -153 l43
5 -83 -84 -84 -84 72 0 71 0 82 88 c91 97 130 165 130 230 0 127 -141 203
-290 157z m145 -110 c14 -13 25 -33 25 -45 0 -11 -11 -32 -25 -45 -50 -51
-145 -21 -145 45 0 68 94 97 145 45z"/>
<path d="M5062 1876 c-103 -34 -162 -119 -162 -237 0 -164 133 -273 295 -239
116 24 187 115 187 239 0 104 -43 181 -123 222 -51 26 -142 33 -197 15z m138
-113 c69 -40 77 -175 14 -234 -36 -34 -112 -34 -148 0 -30 29 -46 95 -36 153
15 83 100 123 170 81z"/>
<path d="M1430 1641 l0 -241 65 0 65 0 0 80 0 80 33 0 c29 0 36 -7 82 -80 l50
-80 67 0 c38 0 68 2 68 4 0 3 -25 41 -56 86 l-56 81 43 38 c40 35 43 41 46 97
5 73 -17 113 -79 146 -37 19 -62 23 -185 26 l-143 4 0 -241z m250 126 c17 -8
26 -22 28 -43 5 -47 -18 -64 -89 -64 l-59 0 0 60 0 60 48 0 c26 0 58 -6 72
-13z"/>
<path d="M1999 1640 l-107 -240 68 0 67 0 16 40 15 40 107 0 107 0 15 -40 16
-40 67 0 68 0 -107 240 -106 240 -60 0 -60 0 -106 -240z"/>
<path d="M2470 1640 l0 -242 153 4 c131 3 159 7 202 26 97 44 145 114 145 212
0 68 -25 125 -74 168 -65 57 -95 65 -268 70 l-158 4 0 -242z m260 131 c32 -7
54 -19 77 -45 28 -30 33 -43 33 -86 0 -43 -5 -55 -34 -88 -34 -37 -35 -37
-125 -40 l-91 -4 0 129 c0 71 3 133 7 136 9 9 78 8 133 -2z"/>
<path d="M3010 1640 l0 -240 60 0 60 0 0 240 0 240 -60 0 -60 0 0 -240z"/>
<path d="M3960 1848 c-19 -17 -59 -53 -88 -81 l-54 -50 34 -33 33 -34 32 30
c18 17 34 30 37 30 4 0 6 -70 6 -155 l0 -155 60 0 60 0 0 240 0 240 -42 0
c-34 -1 -51 -7 -78 -32z"/>
<path d="M4210 1798 l-91 -82 38 -32 38 -32 33 31 32 31 0 -157 0 -157 60 0
60 0 0 240 0 240 -40 0 c-35 0 -49 -8 -130 -82z"/>
<path d="M1197 1181 c118 -113 268 -166 443 -159 164 8 312 72 419 182 l35 36
-480 0 -479 -1 62 -58z"/>
</g>
</svg>
